<svg width="53" height="59" viewBox="0 0 53 59" fill="none" xmlns="http://www.w3.org/2000/svg">
<path d="M26.7133 0C27.3321 0.336235 27.5378 0.849531 27.527 1.55419C27.4931 3.87744 27.5181 6.20247 27.5127 8.5275C27.5109 9.2733 27.13 9.76156 26.5112 9.84204C25.8637 9.92789 25.2413 9.44142 25.236 8.75464C25.2145 6.20247 25.2253 3.64851 25.2306 1.09634C25.2324 0.549065 25.6205 0.264696 26.0265 0C26.2554 0 26.4843 0 26.7133 0Z" fill="#ED1C24"/>
<path d="M26.0855 45.3703C21.1099 45.3274 16.3365 43.7178 11.9243 40.9832C7.39226 38.1752 3.59709 34.5589 0.436839 30.2719C-0.144419 29.4832 -0.149785 29.172 0.445781 28.3779C4.63978 22.7871 9.72087 18.2604 16.1988 15.4668C23.3187 12.3978 30.4172 12.5748 37.4174 15.8496C43.5376 18.7111 48.3897 23.1126 52.387 28.5031C52.8341 29.1058 52.8574 29.5172 52.4442 30.0734C47.8389 36.2651 42.2016 41.1531 34.867 43.8573C32.1252 44.8695 29.2762 45.3614 26.0855 45.3703ZM26.9708 15.5813C23.19 15.5795 20.1191 16.2681 17.1771 17.5325C11.352 20.0364 6.74483 24.073 2.8352 28.9824C2.6331 29.2364 2.62595 29.4152 2.83162 29.6728C6.5016 34.2906 10.8047 38.1448 16.1809 40.6827C22.7124 43.766 29.3119 43.9073 35.9329 40.9689C41.5953 38.456 46.0844 34.4766 49.9099 29.6799C50.1478 29.3813 50.0727 29.197 49.8742 28.9449C47.1074 25.443 43.9257 22.3883 40.1627 19.9702C35.9723 17.2768 31.4438 15.6153 26.9708 15.5813Z" fill="#ED1C24"/>
<path d="M27.5164 53.7654C27.5164 54.9458 27.52 56.128 27.5146 57.3084C27.511 58.1347 27.0585 58.6587 26.3664 58.6551C25.6742 58.6533 25.2271 58.1311 25.2253 57.3012C25.2218 54.9208 25.2218 52.5385 25.2253 50.158C25.2271 49.3317 25.6796 48.8095 26.3718 48.8113C27.0639 48.8131 27.5092 49.3353 27.5128 50.1652C27.52 51.3652 27.5164 52.5653 27.5164 53.7654Z" fill="#ED1C24"/>
<path d="M10.6455 14.6155C10.6276 15.6403 9.66008 16.1732 8.90713 15.7136C8.76226 15.626 8.63527 15.5061 8.51366 15.3863C7.00239 13.8786 5.48039 12.3834 4.00131 10.8471C3.7384 10.5753 3.50411 10.1049 3.54524 9.76152C3.58638 9.42529 3.93871 8.97995 4.25885 8.86191C4.5772 8.74387 5.1513 8.83866 5.39275 9.06938C7.07393 10.6719 8.70324 12.3298 10.3308 13.9877C10.515 14.1773 10.5811 14.4831 10.6455 14.6155Z" fill="#ED1C24"/>
<path d="M49.4038 9.7956C49.1623 10.2123 49.0461 10.5503 48.8207 10.7811C47.2737 12.3585 45.7088 13.9181 44.1385 15.4723C43.5948 16.0106 42.9437 16.032 42.4591 15.5706C41.9583 15.0931 41.969 14.4135 42.527 13.8519C44.0812 12.2816 45.6479 10.7238 47.2111 9.16247C47.5956 8.77974 48.0731 8.57227 48.5507 8.8638C48.8851 9.06768 49.1069 9.45936 49.4038 9.7956Z" fill="#ED1C24"/>
<path d="M9.56684 43.8C9.87625 44.0343 10.2983 44.206 10.4468 44.5101C10.597 44.8159 10.5058 45.2577 10.4593 45.6315C10.4414 45.7745 10.2679 45.9087 10.1481 46.0285C8.62789 47.5523 7.11841 49.0868 5.56958 50.5802C5.31025 50.8306 4.85418 51.0613 4.53047 51.013C4.18529 50.9629 3.73996 50.6303 3.61655 50.3137C3.49315 49.9989 3.58078 49.4195 3.80971 49.178C5.4104 47.4951 7.06654 45.864 8.72447 44.2346C8.91405 44.0504 9.21451 43.9771 9.56684 43.8Z" fill="#ED1C24"/>
<path d="M49.2534 49.786C49.2338 50.8126 48.268 51.3438 47.515 50.8842C47.3702 50.7965 47.2432 50.6767 47.1216 50.5569C45.6103 49.051 44.0883 47.5558 42.6092 46.0195C42.3463 45.7476 42.112 45.2773 42.1532 44.9339C42.1943 44.5976 42.5484 44.1541 42.8668 44.0361C43.1851 43.918 43.7574 44.0128 44.0007 44.2453C45.6818 45.8478 47.3111 47.5057 48.9387 49.1636C49.1247 49.3497 49.1908 49.6555 49.2534 49.786Z" fill="#ED1C24"/>
<path d="M36.6804 29.3525C36.6715 34.7252 32.5562 39.1588 27.1496 39.6167C21.9111 40.0602 17.0124 36.2454 16.2165 31.0123C16.0502 29.9159 16.145 28.7713 16.2058 27.6535C16.2487 26.897 16.8085 26.4624 17.456 26.5232C18.141 26.5875 18.5684 27.1205 18.4611 27.9146C18.3001 29.1039 18.3127 30.2736 18.631 31.4326C19.7381 35.4495 23.6388 37.914 27.7988 37.2237C31.7531 36.5691 34.6541 32.8347 34.375 28.7588C34.0209 23.5936 28.8611 20.1132 23.8999 21.6943C23.6996 21.7586 23.5028 21.8391 23.2972 21.8731C22.6855 21.9715 22.1668 21.6495 22.0059 21.0933C21.8413 20.5228 22.0667 19.9076 22.6497 19.7376C23.6495 19.4443 24.6743 19.1296 25.7045 19.058C31.6512 18.6413 36.6911 23.4005 36.6804 29.3525Z" fill="#ED1C24"/>
<path d="M30.9501 29.3401C30.9465 31.8637 28.8737 33.9222 26.3448 33.9115C23.823 33.9008 21.7716 31.8207 21.7877 29.2918C21.8038 26.7933 23.8605 24.7526 26.3644 24.7509C28.8933 24.7473 30.9555 26.8112 30.9501 29.3401ZM26.3662 31.6204C27.6235 31.6222 28.6573 30.5903 28.6591 29.333C28.6608 28.0739 27.6307 27.0419 26.3734 27.0401C25.1143 27.0383 24.0823 28.0667 24.0805 29.3258C24.0787 30.5849 25.1089 31.6186 26.3662 31.6204Z" fill="#ED1C24"/>
<path d="M20.6357 23.5758C20.6518 24.2071 20.1242 24.7455 19.4928 24.7437C18.883 24.7419 18.3679 24.2393 18.3536 23.6277C18.3393 23.0196 18.8293 22.4902 19.4392 22.4598C20.0687 22.4294 20.6214 22.9445 20.6357 23.5758Z" fill="#ED1C24"/>
</svg>
