<svg width="78" height="73" viewBox="0 0 78 73" fill="none" xmlns="http://www.w3.org/2000/svg">
<g clip-path="url(#clip0_26_26)">
<path d="M0 67.0556C0.297634 65.9645 0.485373 64.8278 0.914271 63.7885C2.99771 58.7386 6.81964 55.8342 12.1786 54.891C12.377 54.8559 12.577 54.8209 12.7738 54.7767C12.8166 54.7675 12.8502 54.7188 12.9005 54.6776C7.35233 53.6734 4.64767 49.0014 5.07047 44.7622C5.53752 40.0718 9.41135 36.5381 14.0605 36.4878C18.751 36.4375 22.6309 39.8296 23.2445 44.625C23.7527 48.5991 21.332 53.5592 15.4449 54.7325C18.8578 55.1835 21.8845 56.4666 24.4381 58.9062C26.085 56.8597 27.9807 55.1759 30.2595 53.9355C32.5154 52.7073 34.927 52.0201 37.5019 51.6894C33.7929 51.0494 30.8242 49.2666 28.785 46.1153C26.7398 42.9564 26.2666 39.5233 27.3747 35.9271C29.0873 30.3667 34.5225 26.7491 40.2676 27.4485C46.5515 28.2135 51.0282 33.1507 51.1778 39.2459C51.3198 44.9968 47.2414 50.6197 40.4966 51.6818C45.828 52.2898 50.1842 54.6548 53.5497 58.9047C56.0926 56.5016 59.0964 55.1698 62.5444 54.7249C59.9649 54.2159 57.8692 52.9832 56.3673 50.8498C54.8456 48.6875 54.3434 46.2768 54.9005 43.697C55.8682 39.2063 60.0382 36.1328 64.5759 36.5107C69.1244 36.8901 72.7799 40.6677 72.957 45.1705C73.1417 49.8974 69.9272 53.7984 65.1208 54.7462C65.3376 54.7919 65.5528 54.8529 65.7726 54.8834C72.7784 55.8266 77.9802 61.7405 77.9969 68.7851C77.9985 69.5958 78.0091 70.408 77.9939 71.2187C77.9725 72.3707 77.3986 72.9467 76.2615 72.9832C76.1089 72.9878 75.9562 72.9848 75.8051 72.9848C51.2572 72.9848 26.7077 72.9817 2.15976 72.9985C1.21343 72.9985 0.476215 72.7699 0.00305266 71.9212C0 70.2998 0 68.6769 0 67.0556ZM54.261 69.9097C53.974 64.1055 51.5365 59.5798 46.4935 56.7546C41.1758 53.7755 35.7543 53.9767 30.638 57.2895C26.1338 60.2045 23.9573 64.5215 23.7527 69.9097C33.9364 69.9097 44.0285 69.9097 54.261 69.9097ZM48.1358 39.5476C48.1465 34.5221 44.0331 30.4063 38.9992 30.4047C33.9959 30.4047 29.8901 34.4764 29.8611 39.4699C29.8321 44.497 33.9288 48.6311 38.9595 48.6509C43.9934 48.6707 48.1252 44.5717 48.1358 39.5476ZM3.09387 69.896C8.98855 69.896 14.8359 69.896 20.7214 69.896C20.784 67.0846 21.3854 64.4438 22.5607 61.931C22.6507 61.7375 22.492 61.3139 22.3119 61.128C19.1585 57.8456 13.7705 56.8567 9.5884 58.7676C5.12389 60.8079 2.67565 64.9771 3.09387 69.896ZM74.9489 69.9067C74.9489 69.5089 74.9504 69.0929 74.9489 68.6754C74.929 64.1756 72.1786 60.1984 67.9598 58.5695C63.7059 56.9268 58.5408 58.0178 55.6103 61.2087C55.447 61.3855 55.3951 61.7923 55.4714 62.0361C55.6729 62.6853 56.0575 63.2826 56.2147 63.9379C56.6848 65.8929 57.0801 67.8647 57.5197 69.9051C63.1671 69.9067 68.9947 69.9067 74.9489 69.9067ZM14.1903 51.6894C17.4994 51.6681 20.2422 48.9267 20.2544 45.6262C20.2681 42.3073 17.4643 39.5126 14.143 39.5339C10.8339 39.5553 8.09107 42.2966 8.07886 45.5972C8.06665 48.9161 10.869 51.7108 14.1903 51.6894ZM63.8647 39.5339C60.5754 39.5019 57.8067 42.2159 57.741 45.5378C57.6754 48.8368 60.4503 51.6574 63.7929 51.6894C67.0822 51.7214 69.8494 49.0075 69.9166 45.6856C69.9822 42.3865 67.2073 39.5659 63.8647 39.5339Z" fill="white"/>
<path d="M47.0491 21.6885C47.0629 23.002 45.8677 23.6816 44.6619 23.0706C42.9906 22.2218 41.3254 21.3563 39.6861 20.4496C39.1656 20.1616 38.7673 20.1372 38.2361 20.4329C36.6411 21.3182 35.0079 22.1334 33.3976 22.9898C32.752 23.3342 32.1079 23.4881 31.4668 23.0294C30.8502 22.5891 30.7861 21.9582 30.9067 21.2603C31.2379 19.3662 31.5279 17.4629 31.8881 15.5734C31.9736 15.1208 31.8377 14.8724 31.5432 14.5905C30.171 13.2724 28.8217 11.9315 27.448 10.6164C26.9077 10.0999 26.6116 9.5208 26.8711 8.7848C27.1214 8.07775 27.7136 7.83546 28.4127 7.73946C30.2717 7.48803 32.1262 7.2046 33.9868 6.95622C34.4615 6.89222 34.7301 6.69107 34.9392 6.24307C35.7314 4.54706 36.5846 2.87848 37.3951 1.19009C37.7126 0.530278 38.1308 0.0137043 38.9168 0.00151375C39.7441 -0.0106768 40.1715 0.531802 40.4997 1.21447C41.301 2.88001 42.1435 4.5242 42.9219 6.19888C43.1417 6.67126 43.4226 6.89374 43.9278 6.96079C45.7884 7.20765 47.6429 7.48803 49.5019 7.74403C50.201 7.84003 50.781 8.09603 51.0237 8.81223C51.2649 9.5269 50.984 10.0892 50.4727 10.5844C49.1417 11.8705 47.8382 13.1871 46.4798 14.4443C46.028 14.8618 45.9242 15.2671 46.0326 15.8401C46.3775 17.6808 46.6843 19.5292 47.0049 21.3731C47.0262 21.498 47.04 21.623 47.0491 21.6885ZM34.3791 19.0249C35.5788 18.3986 36.6716 17.8744 37.7187 17.2664C38.5505 16.7833 39.2969 16.7559 40.1394 17.2511C41.1804 17.8622 42.2763 18.3803 43.5004 19.0188C43.2699 17.6717 43.0898 16.4786 42.8548 15.2961C42.6777 14.4031 42.8181 13.6595 43.5554 13.0469C44.0606 12.6279 44.5108 12.1402 44.981 11.6801C45.3976 11.2717 45.8082 10.8557 46.3012 10.3619C45.0374 10.1791 43.94 9.9688 42.8319 9.87433C41.7085 9.77833 40.9591 9.31509 40.5225 8.23622C40.0845 7.15584 39.5106 6.13183 38.9443 4.9783C38.3735 6.1364 37.7996 7.12841 37.389 8.18289C36.9403 9.33642 36.145 9.79356 34.9652 9.88652C33.8769 9.97338 32.8008 10.1928 31.7614 10.3482C32.5978 11.2336 33.3427 12.1372 34.2066 12.9052C35.0323 13.6382 35.2414 14.4412 35.011 15.4805C34.7576 16.6081 34.6004 17.7555 34.3791 19.0249Z" fill="white"/>
<path d="M6.81509 29.2558C6.99215 28.2409 7.18141 27.0157 7.42563 25.7997C7.54621 25.2024 7.46836 24.7635 6.97536 24.3338C6.11756 23.5841 5.33608 22.746 4.50881 21.9612C3.9807 21.4599 3.75328 20.8763 3.98986 20.1784C4.22186 19.4957 4.78813 19.2428 5.45819 19.1513C6.61362 18.9928 7.766 18.8161 8.92296 18.6683C9.40985 18.6058 9.73496 18.4336 9.95017 17.9384C10.4035 16.8961 10.9514 15.8934 11.4445 14.8663C11.7589 14.2096 12.1817 13.693 12.9738 13.6869C13.7629 13.6808 14.1995 14.1715 14.5154 14.8389C15.0038 15.8675 15.5503 16.8702 16.0112 17.9094C16.2371 18.4184 16.5699 18.6149 17.0949 18.6759C18.2275 18.8085 19.3539 18.9974 20.4849 19.1452C21.1901 19.2367 21.7594 19.5109 22.0066 20.218C22.2554 20.9327 21.9578 21.4934 21.4465 21.9856C20.5872 22.8115 19.7462 23.6573 18.8746 24.4694C18.5495 24.7727 18.4121 25.047 18.5144 25.5209C18.7693 26.7079 18.9387 27.9118 19.1509 29.1079C19.2699 29.7815 19.1524 30.3803 18.58 30.8085C18.0077 31.2382 17.4032 31.1834 16.7927 30.8588C15.6968 30.2767 14.5826 29.7251 13.5004 29.1186C13.1173 28.9038 12.8288 28.9297 12.4595 29.1308C11.3269 29.751 10.1898 30.3697 9.02369 30.9243C7.86368 31.4805 6.75862 30.7262 6.81509 29.2558ZM15.7197 26.7247C14.8329 24.6584 15.3427 23.0264 17.2903 21.7662C14.9626 21.8957 13.5996 20.8534 12.9601 18.6271C12.4305 20.9494 10.9576 21.8256 8.68943 21.7799C10.6477 23.0355 11.1514 24.6675 10.228 26.7506C11.2598 26.3376 12.116 25.7296 12.9754 25.7266C13.8332 25.722 14.694 26.3239 15.7197 26.7247Z" fill="white"/>
<path d="M58.611 29.2375C58.7912 28.2028 58.9942 26.9548 59.2338 25.7129C59.3376 25.1735 59.2628 24.7727 58.814 24.378C57.9395 23.6085 57.1381 22.7567 56.2926 21.9521C55.7644 21.4493 55.5447 20.8611 55.7873 20.1662C56.0239 19.4866 56.5948 19.2397 57.2648 19.1498C58.4203 18.9929 59.5726 18.8131 60.7296 18.6668C61.2226 18.6043 61.5324 18.4123 61.7492 17.9262C62.23 16.8397 62.7993 15.7928 63.3182 14.7231C63.6189 14.1045 64.0677 13.693 64.7805 13.6885C65.4963 13.6839 65.9481 14.1014 66.2488 14.7155C66.783 15.8066 67.3432 16.8854 67.8469 17.9902C68.0392 18.4108 68.3048 18.5982 68.7505 18.6546C69.9074 18.8009 71.0583 18.9959 72.2152 19.1391C72.9479 19.2306 73.5508 19.4896 73.8041 20.2317C74.0606 20.983 73.7049 21.5468 73.1768 22.0512C72.3144 22.874 71.4429 23.6893 70.6233 24.5533C70.4233 24.7651 70.2905 25.1674 70.3287 25.4554C70.492 26.6836 70.7301 27.9026 70.9453 29.1232C71.0644 29.7983 70.9362 30.3941 70.3623 30.8192C69.7838 31.2474 69.1809 31.1788 68.5734 30.8573C67.4989 30.2874 66.4091 29.7464 65.3483 29.1522C64.9499 28.9297 64.6462 28.9099 64.2386 29.1384C63.1336 29.7571 62.0117 30.3483 60.8715 30.9015C59.6703 31.4836 58.5454 30.7491 58.611 29.2375ZM69.1122 21.882C68.0193 21.6032 66.9631 21.5925 66.2686 21.0851C65.5787 20.5822 65.2536 19.5811 64.7393 18.7521C64.4706 19.287 64.1928 19.8203 63.9334 20.3628C63.6266 21.0043 63.1641 21.399 62.4269 21.4736C61.8179 21.5346 61.2165 21.6641 60.6136 21.7632C61.2577 22.5388 62.1048 23.1681 62.3673 23.9864C62.6268 24.794 62.2941 25.7906 62.2254 26.6577C63.0801 26.3239 63.9425 25.7251 64.8049 25.7251C65.6535 25.7236 66.5006 26.33 67.5859 26.7643C66.5495 24.6203 67.1875 23.0554 69.1122 21.882Z" fill="white"/>
<path d="M45.0115 59.5493C45.1931 59.6254 45.5457 59.7108 45.8265 59.9028C47.5711 61.0944 48.9296 62.6335 49.8881 64.5169C50.3414 65.4068 50.1277 66.2647 49.363 66.6914C48.6151 67.1074 47.7512 66.9001 47.2918 66.0514C46.4691 64.5306 45.3717 63.2826 43.9766 62.2677C43.3875 61.838 43.1875 61.2178 43.4439 60.5169C43.6759 59.883 44.1659 59.5721 45.0115 59.5493Z" fill="white"/>
<path d="M38.9825 60.808C38.1811 60.7973 37.4775 60.0796 37.4867 59.2841C37.4958 58.4857 38.2162 57.7817 39.013 57.7908C39.8128 57.7999 40.5179 58.5192 40.5088 59.3146C40.4996 60.1131 39.7792 60.8171 38.9825 60.808Z" fill="white"/>
</g>
<defs>
<clipPath id="clip0_26_26">
<rect width="78" height="73" fill="white"/>
</clipPath>
</defs>
</svg>
