<svg width="91" height="91" viewBox="0 0 91 91" fill="none" xmlns="http://www.w3.org/2000/svg">
<g clip-path="url(#clip0_26_20)">
<path d="M33.5902 91C31.4343 89.9722 30.9736 89.0393 31.3939 86.6918C31.9519 83.5775 32.5027 80.4608 32.9966 77.3347C33.056 76.9549 32.8565 76.3971 32.5787 76.1241C30.2423 73.8145 27.8703 71.5358 25.4817 69.2784C24.4869 68.3384 24.0215 67.2465 24.4204 65.9267C24.8193 64.6022 25.807 63.9518 27.1747 63.7667C30.399 63.3299 33.6163 62.8315 36.8431 62.3947C37.5483 62.2998 37.9804 62.0458 38.3081 61.3669C39.7066 58.4639 41.1929 55.6012 42.6104 52.7077C43.2088 51.4876 44.0801 50.6972 45.4786 50.6853C46.9175 50.6734 47.8127 51.4805 48.4229 52.7314C49.8356 55.6273 51.3148 58.4924 52.7062 61.4001C53.0196 62.0553 53.428 62.2974 54.1024 62.3876C57.417 62.8386 60.7245 63.3299 64.0343 63.8023C65.2951 63.9827 66.1831 64.6639 66.5773 65.8603C66.9714 67.0566 66.6818 68.1509 65.77 69.0339C63.3244 71.4052 60.8788 73.7742 58.4095 76.1194C58.0177 76.4897 57.9013 76.8315 57.9963 77.3608C58.5804 80.5605 59.1384 83.7674 59.6869 86.9742C60.0406 89.0441 59.4471 90.0648 57.4051 91.0047C56.9896 91.0047 56.5764 91.0047 56.1609 91.0047C55.5531 90.7104 54.9381 90.4279 54.3374 90.117C51.614 88.707 48.9001 87.2733 46.1625 85.8871C45.8491 85.728 45.3362 85.6616 45.0465 85.8087C41.6868 87.5131 38.3508 89.2648 35.0101 91.0047C34.5399 91 34.0651 91 33.5902 91ZM56.6619 87.8952C56.6619 87.5985 56.688 87.4205 56.6572 87.2519C56.0612 83.7864 55.4842 80.3137 54.836 76.8576C54.6627 75.9271 54.8978 75.2743 55.5602 74.6453C58.0296 72.3048 60.468 69.9288 62.935 67.5812C63.1558 67.3699 63.4906 67.2798 63.7732 67.1326C63.6805 67.0281 63.5856 66.9213 63.493 66.8169C63.3529 66.7789 63.2152 66.7243 63.0703 66.7053C59.6156 66.2116 56.1657 65.6941 52.7039 65.2479C51.6354 65.1102 50.9349 64.7019 50.4553 63.6907C49.0996 60.8352 47.6512 58.02 46.2408 55.1906C46.0224 54.7538 45.8039 54.3194 45.5214 53.7592C45.2935 54.1746 45.132 54.4452 44.9895 54.7277C43.4533 57.7921 41.9052 60.8518 40.3975 63.9305C40.0342 64.6711 39.519 65.0698 38.7141 65.179C36.4869 65.4829 34.2621 65.8081 32.0374 66.1309C30.5225 66.3493 29.0077 66.5724 27.4928 66.7931C27.4263 66.8905 27.3599 66.9878 27.2934 67.0875C27.5664 67.2584 27.8775 67.3889 28.1054 67.6073C30.5866 69.9786 33.0488 72.3737 35.5348 74.7402C36.0999 75.2767 36.354 75.8654 36.2139 76.6392C35.8862 78.4432 35.5704 80.2472 35.257 82.0536C34.9246 83.9668 34.5993 85.8823 34.2479 87.9379C34.6468 87.7433 34.908 87.6222 35.1668 87.4869C38.2368 85.8942 41.314 84.3157 44.3674 82.6921C45.1534 82.2743 45.8419 82.2577 46.6231 82.6802C48.4442 83.6629 50.2891 84.6005 52.1245 85.5548C53.6227 86.3238 55.1115 87.0905 56.6619 87.8952Z" fill="white"/>
<path d="M-1.80118e-05 58.3072C0.60782 56.8498 1.78551 56.3371 3.27898 56.1685C5.63198 55.9027 7.96836 55.5063 10.3142 55.1977C10.8722 55.1241 11.1809 54.901 11.4326 54.3811C12.5366 52.0905 13.712 49.8355 14.8279 47.5497C15.3693 46.4435 16.1647 45.7267 17.4278 45.7243C18.6839 45.7219 19.5078 46.4151 20.0491 47.5236C21.1793 49.8355 22.3452 52.1285 23.473 54.4405C23.6867 54.8772 23.9265 55.098 24.4512 55.1668C27.0606 55.511 29.6653 55.9027 32.2653 56.3038C33.4121 56.4795 33.9321 57.1156 33.7943 58.0699C33.6638 58.979 32.8826 59.4395 31.7833 59.2804C29.029 58.884 26.2795 58.4615 23.5181 58.1244C22.319 57.9796 21.5426 57.5144 21.0179 56.3608C19.9328 53.9705 18.7005 51.6443 17.4635 49.1614C17.2664 49.5175 17.1215 49.7619 16.9957 50.0136C15.8679 52.2614 14.7329 54.5022 13.6265 56.7596C13.2727 57.4835 12.7812 57.8989 11.9478 58.0105C9.25052 58.3713 6.55798 58.7843 3.86545 59.1807C3.76098 59.195 3.65888 59.2235 3.55916 59.2448C4.23823 59.9569 4.86743 60.6548 5.53463 61.3123C6.88565 62.6416 8.25091 63.9542 9.62092 65.2669C10.1552 65.7796 10.3451 66.3516 10.2074 67.1065C9.70402 69.8671 9.25052 72.6348 8.74715 75.5805C9.15079 75.3811 9.42385 75.2506 9.69452 75.1105C11.9241 73.9498 14.1631 72.8057 16.3784 71.6165C17.1002 71.2296 17.7413 71.2082 18.4702 71.5951C21.1081 72.9956 23.7674 74.3581 26.4124 75.7467C27.4026 76.2665 27.7231 77.1092 27.2862 77.9305C26.8588 78.7328 25.9827 78.9274 24.9831 78.4123C22.6966 77.2302 20.4124 76.0458 18.1425 74.8328C17.6534 74.5717 17.2735 74.5456 16.763 74.821C14.524 76.0292 12.2493 77.1685 10.0032 78.3649C8.89674 78.9535 7.81402 79.1055 6.74556 78.3435C5.67235 77.5744 5.48477 76.4825 5.69846 75.2577C6.13297 72.782 6.52712 70.2967 7.00437 67.8305C7.11834 67.2418 6.964 66.9071 6.56273 66.5273C4.88406 64.9393 3.2125 63.3466 1.58131 61.7087C0.987719 61.1129 0.519968 60.3937 -0.00714111 59.7291C-1.80118e-05 59.2543 -1.80118e-05 58.782 -1.80118e-05 58.3072Z" fill="white"/>
<path d="M72.9263 27.3662C72.8551 38.7504 65.4827 49.2207 54.7838 52.9973C53.675 53.3889 52.8368 53.078 52.521 52.1546C52.2266 51.2953 52.6706 50.5524 53.7628 50.1489C56.0564 49.3014 58.1839 48.1573 60.1119 46.6572C60.3422 46.4768 60.6081 46.1777 60.6271 45.9142C61.0379 40.3764 58.2432 36.1845 53.9741 34.2167C53.656 34.0695 53.1051 34.1241 52.7917 34.3069C47.9314 37.1387 43.0853 37.1695 38.2487 34.2879C37.7762 34.0054 37.4129 33.9817 36.9547 34.2143C32.695 36.3886 30.4988 39.8447 30.3207 44.6419C30.2756 45.8406 30.5486 46.6762 31.6432 47.2292C33.5118 48.1739 35.3686 49.1424 37.2063 50.1441C37.6741 50.3981 38.2487 50.7446 38.4125 51.1838C38.5692 51.6087 38.3983 52.2994 38.1228 52.7077C37.7192 53.3106 37.0188 53.2821 36.3492 53.0448C32.9325 51.8294 29.8648 50.0207 27.1889 47.5758C11.8006 33.4974 16.9839 8.34112 36.6816 1.49304C52.3548 -3.95457 69.4313 6.06238 72.3422 22.4361C72.6319 24.062 72.7364 25.7213 72.9263 27.3662ZM63.7162 43.1773C71.3308 35.1234 72.5844 19.9983 62.5337 10.0193C52.6374 0.194631 36.3539 0.802295 27.1628 11.415C18.0879 21.8901 20.4742 36.2106 27.3432 43.1916C27.9867 38.0431 30.5937 34.2096 35.0955 31.6745C29.8031 25.0566 31.5601 16.9054 36.3563 12.5995C41.2808 8.17734 48.7671 7.90436 53.9813 12.0654C56.6572 14.2018 58.3263 16.9695 58.9199 20.3377C59.6607 24.5439 58.5543 28.2967 55.9092 31.6032C61.8428 36.3293 62.0612 36.6568 63.7162 43.1773ZM45.4691 12.1461C39.6353 12.1675 34.8391 16.998 34.87 22.8206C34.9008 28.6077 39.6947 33.3859 45.4858 33.3978C51.303 33.4096 56.1324 28.5839 56.1277 22.7613C56.1229 16.9362 51.2911 12.1248 45.4691 12.1461Z" fill="white"/>
<path d="M82.2362 75.5497C81.8563 73.3326 81.4812 71.2486 81.144 69.155C80.5623 65.5351 80.161 66.4703 82.8108 63.8854C84.3162 62.4161 85.831 60.961 87.3387 59.4941C87.3743 59.4585 87.3815 59.3896 87.4408 59.2282C85.7408 58.979 84.0621 58.7345 82.3858 58.4876C81.2722 58.3238 80.1634 58.1268 79.0474 58.0105C78.2117 57.9227 77.7202 57.4907 77.364 56.7667C76.2884 54.5615 75.182 52.3706 74.085 50.175C73.9425 49.8878 73.7858 49.6077 73.5769 49.216C73.4178 49.4747 73.2943 49.6504 73.1994 49.8379C72.0621 52.1119 70.9129 54.3811 69.804 56.667C69.4218 57.4527 68.9041 57.8966 67.9995 58.0153C65.0078 58.4069 62.0256 58.8722 59.0363 59.2947C58.0794 59.43 57.3196 58.8911 57.2056 58.0461C57.0845 57.1394 57.5689 56.4747 58.5709 56.3204C61.1447 55.9264 63.7233 55.5537 66.3042 55.2143C66.9572 55.1289 67.3276 54.8772 67.6196 54.2601C68.681 52.0146 69.8325 49.8118 70.9176 47.5782C71.4685 46.4435 72.2852 45.7053 73.5864 45.7148C74.8496 45.7243 75.6402 46.453 76.1768 47.5544C77.2928 49.8403 78.4562 52.1 79.5698 54.3859C79.7977 54.8559 80.0565 55.0956 80.605 55.1692C83.2453 55.5205 85.8761 55.9359 88.5117 56.3133C89.6799 56.4795 90.4776 57.0824 90.8433 58.2099C91.2137 59.3493 90.8694 60.3059 90.0384 61.1129C88.1484 62.9478 86.256 64.7826 84.347 66.6009C83.9885 66.9403 83.8722 67.2513 83.9671 67.7592C84.4301 70.2302 84.8385 72.7107 85.2683 75.1865C85.4867 76.4351 85.3348 77.5649 84.2164 78.3554C83.1432 79.1126 82.0653 78.9512 80.9612 78.3625C78.6913 77.1495 76.4119 75.958 74.1111 74.8043C73.812 74.6548 73.3062 74.6524 73.007 74.802C70.7561 75.9223 68.5337 77.0973 66.3018 78.2533C66.0929 78.3625 65.8863 78.4812 65.6679 78.5714C64.8677 78.8989 64.0557 78.626 63.69 77.9162C63.3125 77.1851 63.5167 76.3615 64.2812 75.9176C65.2785 75.3408 66.3184 74.8352 67.3394 74.3011C69.0442 73.411 70.7609 72.547 72.4467 71.626C73.197 71.2153 73.8642 71.2058 74.6216 71.6117C76.8369 72.7986 79.0736 73.9451 81.3055 75.1058C81.569 75.2387 81.8349 75.3574 82.2362 75.5497Z" fill="white"/>
<path d="M37.4841 71.4764C36.3516 71.4622 35.7366 70.9186 35.6749 70.1021C35.6108 69.2428 36.1307 68.6019 37.0615 68.4571C38.403 68.2506 39.7493 68.0536 41.0979 67.8969C41.6535 67.8328 41.9859 67.6097 42.2257 67.0851C42.7908 65.8532 43.4153 64.645 44.035 63.4368C44.5289 62.4707 45.3077 62.1407 46.1221 62.5158C46.9721 62.9074 47.2333 63.7809 46.7489 64.7731C45.9464 66.4157 45.1462 68.0631 44.2701 69.6701C44.054 70.0665 43.5958 70.5103 43.185 70.5887C41.2143 70.9613 39.2222 71.2177 37.4841 71.4764Z" fill="white"/>
</g>
<defs>
<clipPath id="clip0_26_20">
<rect width="91" height="91" fill="white"/>
</clipPath>
</defs>
</svg>
