<svg width="94" height="87" viewBox="0 0 94 87" fill="none" xmlns="http://www.w3.org/2000/svg">
<g clip-path="url(#clip0_26_12)">
<path d="M34.7221 85.0956C35.066 83.0392 35.4341 80.839 35.8075 78.6389C36.0224 77.3719 36.2239 76.1023 36.4765 74.8435C36.6001 74.2223 36.4899 73.7801 36.0117 73.3216C33.6582 71.0563 31.345 68.7476 29.0103 66.4606C28.4354 65.8991 27.9303 65.3239 28.207 64.4314C28.5079 63.4629 29.2709 63.2676 30.1602 63.1455C33.3465 62.7087 36.5221 62.2041 39.7058 61.7538C40.3291 61.6642 40.6999 61.4065 40.982 60.8151C42.3871 57.858 43.8459 54.9281 45.2725 51.9819C45.6272 51.2521 46.0328 50.6173 46.949 50.5929C47.9162 50.5685 48.3541 51.2141 48.7275 51.9819C50.1407 54.8956 51.5942 57.7929 52.9778 60.7229C53.2921 61.3875 53.6951 61.6697 54.399 61.7646C57.6498 62.2122 60.8953 62.7141 64.1461 63.1753C64.9494 63.2893 65.6936 63.6175 65.7447 64.4395C65.7823 65.0527 65.5163 65.8611 65.0945 66.2952C62.8001 68.6689 60.4332 70.9695 58.0528 73.2565C57.5209 73.7665 57.4134 74.2494 57.5424 74.952C58.1334 78.2129 58.6708 81.482 59.2296 84.7483C59.3585 85.4998 59.243 86.178 58.5955 86.6528C57.9481 87.1302 57.2845 87.0299 56.6101 86.6718C53.7381 85.139 50.8473 83.6442 48.0021 82.0653C47.2553 81.6502 46.6991 81.6882 45.9791 82.0842C43.1259 83.6496 40.2458 85.1688 37.3631 86.6772C36.0117 87.3825 34.7221 86.6636 34.7221 85.0956ZM55.3823 82.2063C55.2829 81.5552 55.2184 81.0967 55.1405 80.6383C54.7671 78.4055 54.4098 76.1701 54.0121 73.9428C53.859 73.091 54.1035 72.4453 54.716 71.8539C56.4838 70.1475 58.2248 68.4139 59.9711 66.6858C60.143 66.5149 60.2827 66.3141 60.5084 66.0401C57.7251 65.6251 55.0814 65.2073 52.4297 64.8465C51.5754 64.7298 51.0165 64.3283 50.6538 63.5633C50.1353 62.4645 49.5926 61.3794 49.0607 60.2888C48.4024 58.9405 47.7469 57.5922 46.9946 56.0512C46.006 58.0696 45.1194 59.871 44.2382 61.6778C42.5214 65.1937 43.1554 64.5562 39.7354 65.1069C39.4721 65.1503 39.2061 65.1856 38.9401 65.2263C37.1508 65.4949 35.3615 65.7661 33.7039 66.0157C35.1573 67.5729 36.4442 69.2604 38.0347 70.5734C39.8455 72.0682 40.2673 73.6797 39.6816 75.8988C39.1524 77.8928 38.9616 79.979 38.5882 82.2199C40.407 81.2595 42.0217 80.386 43.6552 79.5504C47.6878 77.4886 46.2773 77.4587 50.361 79.5531C51.9891 80.3887 53.5984 81.2622 55.3823 82.2063Z" fill="white"/>
<path d="M48.1392 24.2371C51.038 24.5138 53.9745 24.5843 56.8304 25.1133C63.0715 26.269 66.7441 30.3492 68.2459 36.3909C68.8773 38.9274 68.9391 41.6078 69.2642 44.223C69.7719 48.3168 70.2851 52.4105 70.7902 56.5043C70.9406 57.7305 70.4167 58.5851 69.4361 58.7235C68.4233 58.8672 67.6602 58.1483 67.5098 56.8733C66.7737 50.6607 66.0724 44.4455 65.3041 38.2383C64.6055 32.5874 60.7046 28.8843 55.0975 28.2115C49.3723 27.5251 43.6686 27.62 37.9568 28.2739C33.2713 28.811 29.6175 32.1126 28.5294 37.1043C28.0512 39.3045 27.9652 41.5915 27.71 43.8405C27.2156 48.2083 26.7347 52.5787 26.227 56.9438C26.0738 58.2568 25.335 58.8971 24.2711 58.7452C23.277 58.6041 22.7773 57.7685 22.9117 56.526C23.5672 50.4735 24.2496 44.4265 24.8595 38.3686C25.5634 31.3774 30.1253 26.2148 36.8042 25.0753C38.6822 24.7552 40.6005 24.6304 42.5053 24.5409C44.3752 24.4514 46.2531 24.5219 48.1284 24.5219C48.1284 24.427 48.1338 24.332 48.1392 24.2371Z" fill="white"/>
<path d="M4.96222 85.0006C5.32223 82.8818 5.66075 80.6057 6.11748 78.3567C6.32704 77.3258 6.15778 76.6205 5.34104 75.8934C3.75861 74.4881 2.30246 72.9363 0.784507 71.4578C0.225686 70.9125 -0.182682 70.3292 0.0859814 69.4909C0.365391 68.6228 1.0263 68.3624 1.85379 68.2512C4.17504 67.9392 6.49629 67.6082 8.80411 67.2094C9.17487 67.1443 9.61548 66.7672 9.79548 66.4145C10.8486 64.3771 11.8427 62.3126 12.8341 60.2427C13.2048 59.4695 13.6427 58.8157 14.5992 58.832C15.4992 58.8482 15.9291 59.4586 16.2837 60.2047C17.2697 62.2746 18.3067 64.3202 19.2901 66.3928C19.548 66.9381 19.8784 67.1904 20.4937 67.2691C22.8498 67.5702 25.2087 67.8822 27.5407 68.3244C28.0968 68.4302 28.8249 68.9619 28.9915 69.4611C29.1581 69.963 28.9028 70.842 28.5186 71.257C26.8664 73.0286 25.0744 74.6672 23.3899 76.4088C23.1051 76.7018 22.9304 77.296 22.9895 77.7083C23.3334 80.0821 23.8197 82.4342 24.126 84.8134C24.1985 85.3831 23.9164 86.14 23.5376 86.5958C23.0352 87.2008 22.2695 87.0515 21.5952 86.6907C19.5238 85.5866 17.4416 84.5041 15.3891 83.3674C14.8222 83.0527 14.3789 83.0555 13.8147 83.3647C11.7299 84.5123 9.62891 85.63 7.51184 86.7179C6.16852 87.4015 4.90849 86.6039 4.96222 85.0006ZM14.5696 64.3093C13.855 65.7634 13.1323 67.0168 12.6164 68.3515C12.0549 69.8056 11.0985 70.4269 9.5913 70.53C8.19425 70.6249 6.80794 70.9234 5.44851 71.1268C6.68167 72.4263 7.82081 73.6634 9.00292 74.8544C9.62891 75.4837 9.85996 76.1484 9.68264 77.0437C9.35487 78.6904 9.11845 80.3561 8.8068 82.2334C10.3892 81.3979 11.8293 80.7034 13.1968 79.8895C14.1854 79.3008 15.0371 79.3415 16.007 79.9139C17.353 80.7061 18.7635 81.3897 20.3405 82.2226C20.0369 80.4483 19.8032 78.8857 19.4969 77.3367C19.282 76.2434 19.5104 75.4051 20.3566 74.6183C21.5253 73.5305 22.5731 72.3069 23.6988 71.1133C22.1298 70.8881 20.5501 70.6195 18.9596 70.4432C17.8796 70.3211 17.2079 69.8165 16.7646 68.8046C16.1198 67.3315 15.3595 65.9126 14.5696 64.3093Z" fill="white"/>
<path d="M89.0459 85.0386C89.0673 86.6311 87.8127 87.388 86.4586 86.6907C84.4033 85.6327 82.3561 84.5503 80.3358 83.4244C79.7125 83.0772 79.2289 83.0365 78.5868 83.3973C76.596 84.5096 74.5622 85.5351 72.5553 86.6175C71.8568 86.9946 71.1717 87.1709 70.4866 86.6609C69.8149 86.1617 69.7155 85.4835 69.8633 84.6723C70.2931 82.3474 70.6961 80.017 71.0293 77.6758C71.0884 77.2661 70.8869 76.6801 70.5994 76.3817C68.9874 74.7106 67.3244 73.0883 65.6533 71.4768C65.0461 70.8908 64.6727 70.2506 64.9602 69.4096C65.2342 68.6093 65.8951 68.357 66.6877 68.2512C69.0089 67.9392 71.3275 67.6082 73.638 67.2094C74.0141 67.1443 74.4682 66.7808 74.6482 66.4308C75.7309 64.3337 76.7518 62.2068 77.7727 60.0772C78.1193 59.3556 78.5868 58.8238 79.4358 58.8293C80.2821 58.8347 80.7441 59.3691 81.0907 60.0908C82.1116 62.2177 83.1353 64.3446 84.2207 66.4417C84.4007 66.7889 84.8574 67.1443 85.2335 67.2094C87.5413 67.6028 89.8626 67.9283 92.1838 68.2485C92.9683 68.357 93.6104 68.612 93.8979 69.4259C94.1908 70.2506 93.8334 70.8583 93.2666 71.4117C91.6304 73.0123 90.0265 74.6455 88.3581 76.2108C87.8234 76.7127 87.6918 77.1875 87.8234 77.8874C88.2291 80.0441 88.573 82.2145 88.9411 84.3766C88.9867 84.6452 89.027 84.9111 89.0459 85.0386ZM88.6079 71.116C86.9718 70.8827 85.4189 70.6195 83.858 70.4486C82.7376 70.3265 82.0445 69.7975 81.5904 68.7531C80.9564 67.2989 80.2095 65.8937 79.4277 64.3039C78.619 65.9452 77.8668 67.3749 77.2112 68.8453C76.7814 69.8138 76.1312 70.3075 75.0888 70.4269C73.4795 70.6141 71.8809 70.8827 70.2824 71.116C71.3812 72.2717 72.3592 73.4301 73.4714 74.4366C74.4655 75.3346 74.7503 76.2922 74.4494 77.5917C74.1135 79.0431 73.947 80.5352 73.6756 82.2036C74.7127 81.661 75.5374 81.2215 76.3649 80.7956C79.965 78.9481 78.8662 78.9129 82.5469 80.8119C83.3824 81.2432 84.2126 81.6827 85.1959 82.1955C84.8923 80.3724 84.6854 78.7637 84.3416 77.1847C84.1186 76.1647 84.3819 75.4403 85.1019 74.7377C86.2759 73.601 87.3855 72.3883 88.6079 71.116Z" fill="white"/>
<path d="M46.7985 0C52.3491 0 56.7364 3.30431 57.9534 8.40456C59.3209 14.1315 55.5811 21.3478 50.1272 23.4612C47.1639 24.6087 44.2892 24.2994 41.6831 22.5333C37.5538 19.7363 35.4045 15.7104 35.3803 10.7105C35.3534 4.57938 40.3425 0 46.7985 0ZM54.9336 10.9113C54.8718 10.3877 54.8557 9.77458 54.7241 9.18588C53.8805 5.46378 50.3959 3.06015 46.3122 3.35314C42.2688 3.64342 39.3377 6.05519 38.7816 9.55484C38.1825 13.3339 40.4527 18.0516 43.7707 19.91C45.7803 21.0358 47.814 21.0657 49.7807 19.8693C53.0745 17.8672 54.7026 14.845 54.9336 10.9113Z" fill="white"/>
<path d="M36.5114 41.1981C36.1648 46.2631 35.8209 51.3281 35.4716 56.3931C35.4448 56.7647 35.426 57.1446 35.3266 57.4999C35.0848 58.3599 34.4883 58.7967 33.6044 58.7289C32.7635 58.6638 32.2719 58.151 32.1268 57.3209C32.0811 57.0577 32.1026 56.781 32.1214 56.5097C32.4787 51.3091 32.8387 46.1112 33.1987 40.9106C33.2041 40.8427 33.2149 40.7749 33.2229 40.7098C33.3788 39.2828 34.0316 38.5476 35.0525 38.6507C36.0949 38.7538 36.592 39.5433 36.5329 40.9974C36.5302 41.0652 36.5275 41.133 36.5248 41.2008C36.5221 41.1981 36.5167 41.1981 36.5114 41.1981Z" fill="white"/>
<path d="M57.04 41.2524C57.0265 40.9485 56.9943 40.6447 57.005 40.3408C57.0346 39.3506 57.7197 38.6371 58.6251 38.6317C59.5117 38.629 60.2048 39.3099 60.2827 40.3246C60.4869 42.9859 60.675 45.65 60.863 48.3141C61.0511 50.9781 61.2553 53.6395 61.4057 56.3063C61.438 56.857 61.3869 57.4728 61.1666 57.9639C60.863 58.6502 60.1242 58.9731 59.4794 58.6746C58.9501 58.4305 58.3618 57.858 58.2194 57.3182C57.9561 56.3225 57.9937 55.2455 57.9212 54.2011C57.623 49.8875 57.3328 45.5713 57.04 41.2524Z" fill="white"/>
</g>
<defs>
<clipPath id="clip0_26_12">
<rect width="94" height="87" fill="white"/>
</clipPath>
</defs>
</svg>
