<svg width="85" height="44" viewBox="0 0 85 44" fill="none" xmlns="http://www.w3.org/2000/svg">
<g clip-path="url(#clip0_1_32)">
<path fill-rule="evenodd" clip-rule="evenodd" d="M84.7433 16.3582C84.7433 25.393 77.4199 32.7164 68.3851 32.7164C59.3504 32.7164 52.0269 25.393 52.0269 16.3582C52.0309 7.32345 59.3543 0 68.3851 0C77.4159 0 84.7433 7.32345 84.7433 16.3582Z" fill="#ED1C24"/>
<path fill-rule="evenodd" clip-rule="evenodd" d="M79.8861 16.3582C79.8861 22.7094 74.7364 27.8592 68.3852 27.8592C62.034 27.8592 56.8842 22.7094 56.8842 16.3582C56.8842 10.007 62.034 4.85727 68.3852 4.85727C74.7364 4.85727 79.8861 10.007 79.8861 16.3582Z" fill="#ED1C24"/>
<mask id="mask0_1_32" style="mask-type:luminance" maskUnits="userSpaceOnUse" x="56" y="4" width="24" height="24">
<path d="M56.8842 16.3582C56.8842 22.7094 62.034 27.8592 68.3852 27.8592C74.7364 27.8592 79.8861 22.7094 79.8861 16.3582C79.8861 10.007 74.7364 4.85727 68.3852 4.85727C62.034 4.85727 56.8842 10.007 56.8842 16.3582Z" fill="white"/>
</mask>
<g mask="url(#mask0_1_32)">
<path d="M79.8861 4.85727H56.8842V27.8592H79.8861V4.85727Z" fill="url(#paint0_radial_1_32)"/>
</g>
<path d="M68.3852 6.48953C62.9351 6.48953 58.5165 10.9081 58.5165 16.3582C58.5165 21.8083 62.9351 26.2269 68.3852 26.2269C73.8353 26.2269 78.2538 21.8083 78.2538 16.3582C78.2538 10.9081 73.8353 6.48953 68.3852 6.48953ZM59.7338 16.3582C59.7338 11.5879 63.6148 7.70681 68.3852 7.70681C73.1555 7.70681 77.0366 11.5879 77.0366 16.3582C77.0366 21.1285 73.1555 25.0096 68.3852 25.0096C63.6148 25.0096 59.7338 21.1285 59.7338 16.3582Z" fill="#1C355E"/>
<path fill-rule="evenodd" clip-rule="evenodd" d="M67.4169 15.5836C67.4169 15.8563 67.1995 16.0816 66.9308 16.0816C66.662 16.0816 66.4486 15.8563 66.4486 15.5836C66.4486 15.3069 66.666 15.0816 66.9308 15.0816C67.1995 15.0856 67.4169 15.3069 67.4169 15.5836Z" fill="white"/>
<path d="M73.1555 16.8167C73.1555 19.4805 70.9936 21.6423 68.3298 21.6423C65.666 21.6423 63.5042 19.4805 63.5042 16.8167C63.5042 14.1529 65.666 11.991 68.3298 11.991C70.9976 11.995 73.1555 14.1529 73.1555 16.8167Z" fill="#ED2024"/>
<path fill-rule="evenodd" clip-rule="evenodd" d="M70.3099 16.7297C70.3099 17.9114 69.3851 18.8679 68.2429 18.8679C67.1007 18.8679 66.1719 17.9114 66.1719 16.7297C66.1719 15.552 67.0968 14.5955 68.2429 14.5955C69.3851 14.5955 70.3099 15.552 70.3099 16.7297Z" fill="#1C355E"/>
<path fill-rule="evenodd" clip-rule="evenodd" d="M68.2429 18.4766C68.2429 19.1643 67.7014 19.7216 67.0414 19.7216C66.3735 19.7216 65.836 19.1643 65.836 18.4766C65.836 17.7889 66.3735 17.2317 67.0414 17.2317C67.7014 17.2317 68.2429 17.785 68.2429 18.4766Z" fill="white"/>
<path fill-rule="evenodd" clip-rule="evenodd" d="M67.2271 15.5203C67.2271 15.8602 66.9505 16.1408 66.6027 16.1408C66.2588 16.1408 65.9822 15.8602 65.9822 15.5203C65.9822 15.1765 66.2588 14.8998 66.6027 14.8998C66.9505 14.8998 67.2271 15.1765 67.2271 15.5203Z" fill="white"/>
<path d="M0 2.22115V8.95572L6.73457 2.22115H0Z" fill="#ED1C24"/>
<path d="M52.3668 25.2428H43.8182C39.1822 25.2428 35.4237 21.4842 35.4237 16.8522C35.4237 12.2163 39.1822 8.45774 43.8182 8.45774H51.853C53.011 6.03898 54.6828 3.91269 56.7301 2.22115H43.8142C40.688 2.22115 37.799 3.2092 35.4197 4.88099C34.0285 5.85718 32.8192 7.06656 31.843 8.45774C30.3293 10.6117 29.3847 13.1885 29.2187 15.9828C27.8236 14.7418 26.0332 13.9316 24.0611 13.7735C23.6737 13.7418 23.3299 13.7379 23.3299 13.7379H15.6073C14.1529 13.7379 12.9712 12.5562 12.9712 11.1018C12.9712 9.6434 14.1529 8.46564 15.6073 8.46564H29.2701L32.1789 2.22905H15.6073C11.6274 2.22905 8.25616 4.85332 7.13373 8.46564C6.87288 9.29956 6.73456 10.1849 6.73456 11.1018C6.73456 12.0187 6.87288 12.9079 7.13373 13.7379C8.18897 17.1249 11.2164 19.6346 14.8761 19.935C15.2634 19.9587 15.6073 19.9705 15.6073 19.9705H23.3339C24.7922 19.9705 25.97 21.1523 25.97 22.6067C25.97 24.065 24.7883 25.2428 23.3339 25.2428H9.64339L6.73851 31.4754V31.4794H23.3378C27.3216 31.4794 30.6889 28.8551 31.8114 25.2428H31.8509C32.8271 26.634 34.0365 27.8433 35.4276 28.8195C37.8029 30.4874 40.6959 31.4794 43.8221 31.4794H57.9632C55.6551 29.8787 53.7382 27.705 52.3668 25.2428Z" fill="white"/>
<path d="M0 10.4813V31.4794H6.73457V11.0939V3.7467L0 10.4813Z" fill="white"/>
<path d="M2.01166 35.2577C3.31589 35.2577 3.98777 36.0363 3.98777 37.4038V37.6725H2.71911V37.3208C2.71911 36.7121 2.47407 36.4789 2.04723 36.4789C1.62039 36.4789 1.37536 36.7121 1.37536 37.3208C1.37536 39.0755 3.99567 39.4036 3.99567 41.8421C3.99567 43.2096 3.31194 43.9881 1.99585 43.9881C0.679766 43.9881 -0.00396729 43.2096 -0.00396729 41.8421V41.3165H1.26469V41.9251C1.26469 42.5337 1.53344 42.7551 1.96028 42.7551C2.38712 42.7551 2.65587 42.5377 2.65587 41.9251C2.65587 40.1703 0.0355549 39.8383 0.0355549 37.4038C0.0355549 36.0402 0.707431 35.2577 2.01166 35.2577Z" fill="#ED1C24"/>
<path d="M9.43787 38.953H11.2756V40.1703H9.43787V42.6721H11.7539V43.8893H8.09412V35.3565H11.7539V36.5777H9.43787V38.953Z" fill="#ED1C24"/>
<path d="M19.8006 40.7078V41.8421C19.8006 43.2096 19.1169 43.9881 17.8008 43.9881C16.4847 43.9881 15.801 43.2096 15.801 41.8421V37.4038C15.801 36.0363 16.4847 35.2577 17.8008 35.2577C19.1169 35.2577 19.8006 36.0363 19.8006 37.4038V38.2337H18.5319V37.3208C18.5319 36.7121 18.2632 36.4789 17.8364 36.4789C17.4095 36.4789 17.1408 36.7121 17.1408 37.3208V41.929C17.1408 42.5377 17.4095 42.759 17.8364 42.759C18.2632 42.759 18.5319 42.5377 18.5319 41.929V40.7078H19.8006Z" fill="#ED1C24"/>
<path d="M25.223 35.3565V41.9409C25.223 42.5495 25.4918 42.7709 25.9186 42.7709C26.3455 42.7709 26.6142 42.5535 26.6142 41.9409V35.3565H27.8829V41.8539C27.8829 43.2214 27.1991 44 25.8831 44C24.567 44 23.8832 43.2214 23.8832 41.8539V35.3565H25.223Z" fill="#ED1C24"/>
<path d="M34.9297 43.8893C34.8585 43.668 34.8072 43.5336 34.8072 42.842V41.5022C34.8072 40.7078 34.5384 40.4153 33.9298 40.4153H33.4674V43.8893H32.1276V35.3565H34.1511C35.5423 35.3565 36.1391 36.0047 36.1391 37.3208V37.9926C36.1391 38.87 35.8585 39.4431 35.2617 39.7237C35.9335 40.0043 36.1509 40.6525 36.1509 41.5417V42.8578C36.1509 43.2728 36.1628 43.5771 36.2971 43.8933H34.9297V43.8893ZM33.4674 36.5777V39.1981H33.9891C34.487 39.1981 34.7953 38.9807 34.7953 38.297V37.4551C34.7953 36.8465 34.5898 36.5777 34.1116 36.5777H33.4674Z" fill="#ED1C24"/>
<path d="M41.6959 35.3565H40.3561V43.8893H41.6959V35.3565Z" fill="#ED1C24"/>
<path d="M45.6085 35.3565H49.7544V36.5777H48.3514V43.8893H47.0116V36.5777H45.6085V35.3565Z" fill="#ED1C24"/>
<path d="M54.9239 41.0635L53.2284 35.3565H54.6314L55.6551 39.2455L56.6787 35.3565H57.9592L56.2637 41.0635V43.8893H54.9239V41.0635Z" fill="#ED1C24"/>
</g>
<defs>
<radialGradient id="paint0_radial_1_32" cx="0" cy="0" r="1" gradientUnits="userSpaceOnUse" gradientTransform="translate(68.3812 16.3476) scale(11.5004 11.5004)">
<stop stop-color="white"/>
<stop offset="0.147" stop-color="white"/>
<stop offset="1" stop-color="#E5E5E5"/>
</radialGradient>
<clipPath id="clip0_1_32">
<rect width="84.7434" height="44" fill="white"/>
</clipPath>
</defs>
</svg>
